<svg width="109" height="88" viewBox="0 0 109 88" fill="none" xmlns="http://www.w3.org/2000/svg">
<path fill-rule="evenodd" clip-rule="evenodd" d="M69.8531 26H46.1509C45.6012 25.5736 45.0107 25.2059 44.3794 24.9013C35.319 20.5307 21.2977 30.8277 13.0619 47.9004C4.82611 64.9731 5.49452 82.3564 14.5548 86.727C22.8317 90.7198 35.2486 82.4719 43.6129 68H72.399C80.7638 82.4717 93.1809 90.7193 101.458 86.7265C110.519 82.3554 111.187 64.9709 102.951 47.8969C94.7146 30.823 80.6923 20.5252 71.6313 24.8962C70.9974 25.202 70.4046 25.5714 69.8531 26Z" fill="black"/>
<circle cx="78" cy="55" r="4" fill="white"/>
<circle cx="86" cy="47" r="4" fill="white"/>
<circle cx="70" cy="47" r="4" fill="white"/>
<circle cx="78" cy="39" r="4" fill="white"/>
<path d="M37.8854 59.313C37.5109 60.0267 36.4891 60.0267 36.1146 59.313L33.4387 54.2147C33.0892 53.5489 33.5721 52.75 34.3241 52.75H39.6759C40.4279 52.75 40.9108 53.5489 40.5613 54.2147L37.8854 59.313Z" fill="white"/>
<path d="M37.8854 36.687C37.5109 35.9733 36.4891 35.9733 36.1146 36.687L33.4387 41.7853C33.0892 42.4511 33.5721 43.25 34.3241 43.25H39.6759C40.4279 43.25 40.9108 42.4511 40.5613 41.7853L37.8854 36.687Z" fill="white"/>
<path d="M48.313 48.8855C49.0267 48.5109 49.0267 47.4891 48.313 47.1146L43.2147 44.4387C42.5489 44.0892 41.75 44.5721 41.75 45.3241V50.6759C41.75 51.4279 42.5489 51.9108 43.2147 51.5613L48.313 48.8855Z" fill="white"/>
<path d="M25.687 48.8855C24.9733 48.5109 24.9733 47.4891 25.687 47.1146L30.7853 44.4387C31.4511 44.0892 32.25 44.5721 32.25 45.3241V50.6759C32.25 51.4279 31.4511 51.9108 30.7853 51.5613L25.687 48.8855Z" fill="white"/>
<path d="M48.3162 25.0378L13.6147 43.9073L2.86625 24.1406L16.7909 25.6751L17.1311 9.55416L30.8472 18.0318L37.5677 5.27111L48.3162 25.0378Z" fill="url(#paint0_linear_602_191)" stroke="black" stroke-width="3"/>
<defs>
<linearGradient id="paint0_linear_602_191" x1="0.708403" y1="26.4522" x2="48.1158" y2="25.7159" gradientUnits="userSpaceOnUse">
<stop offset="0.38252" stop-color="#A18932"/>
<stop offset="0.5416" stop-color="#D0BF82"/>
<stop offset="0.761184" stop-color="#A28932"/>
</linearGradient>
</defs>
</svg>
